<svg width="184" height="48" viewBox="0 0 184 48" fill="none" xmlns="http://www.w3.org/2000/svg">
<path d="M5.66606 19.2C5.23939 19.2 4.79273 19.0933 4.32606 18.88C3.87273 18.68 3.48606 18.3467 3.16606 17.88C2.85939 17.4 2.70606 16.7667 2.70606 15.98C2.70606 15.06 2.78606 14.0867 2.94606 13.06C3.10606 12.0333 3.31273 11.0067 3.56606 9.97999C3.83273 8.93999 4.12606 7.95332 4.44606 7.01999C4.76606 6.08666 5.08606 5.25332 5.40606 4.51999C5.73939 3.78666 6.04606 3.21332 6.32606 2.79999C6.60606 2.37332 6.83939 2.15999 7.02606 2.15999C7.27939 2.15999 7.49273 2.25999 7.66606 2.45999C7.85273 2.65999 7.94606 2.93999 7.94606 3.29999C7.94606 3.44666 7.85939 3.79332 7.68606 4.33999C7.51273 4.87332 7.29273 5.54666 7.02606 6.35999C6.75939 7.17332 6.47273 8.05332 6.16606 8.99999C5.87273 9.94666 5.59273 10.9 5.32606 11.86C5.05939 12.82 4.83939 13.7267 4.66606 14.58C4.49273 15.4333 4.40606 16.16 4.40606 16.76C4.40606 16.9333 4.45273 17.1 4.54606 17.26C4.63939 17.4067 4.79273 17.48 5.00606 17.48C5.29939 17.48 5.71939 17.4133 6.26606 17.28C6.82606 17.1467 7.43273 16.9867 8.08606 16.8C8.73939 16.6 9.36606 16.4067 9.96606 16.22C10.5661 16.0333 11.0727 15.8733 11.4861 15.74C11.8994 15.6067 12.1327 15.54 12.1861 15.54C12.3461 15.54 12.4794 15.5867 12.5861 15.68C12.6927 15.76 12.7461 15.8867 12.7461 16.06C12.7461 16.2733 12.5861 16.52 12.2661 16.8C11.9594 17.08 11.5461 17.36 11.0261 17.64C10.5194 17.92 9.95273 18.1733 9.32606 18.4C8.69939 18.64 8.06606 18.8333 7.42606 18.98C6.79939 19.1267 6.21273 19.2 5.66606 19.2ZM21.1407 18.72C20.9141 18.72 20.7207 18.62 20.5607 18.42C20.4007 18.22 20.3207 17.9267 20.3207 17.54C20.3207 17.0867 20.3874 16.44 20.5207 15.6C20.6674 14.76 20.8807 13.6467 21.1607 12.26C20.8007 13.1133 20.4007 13.92 19.9607 14.68C19.5341 15.44 19.0807 16.06 18.6007 16.54C18.1207 17.02 17.6274 17.26 17.1207 17.26C16.6274 17.26 16.1874 17.0667 15.8007 16.68C15.4274 16.2933 15.2407 15.6133 15.2407 14.64C15.2407 14.0933 15.2874 13.48 15.3807 12.8C15.4741 12.1067 15.5941 11.42 15.7407 10.74C15.8874 10.06 16.0341 9.45332 16.1807 8.91999C16.3274 8.37332 16.4607 7.97332 16.5807 7.71999C16.6741 7.50666 16.7674 7.36666 16.8607 7.29999C16.9541 7.21999 17.0807 7.17999 17.2407 7.17999C17.4274 7.17999 17.6274 7.25999 17.8407 7.41999C18.0541 7.57999 18.1607 7.84666 18.1607 8.21999C18.1607 8.31332 18.1141 8.53332 18.0207 8.87999C17.9407 9.21332 17.8341 9.62666 17.7007 10.12C17.5807 10.6 17.4541 11.12 17.3207 11.68C17.1874 12.24 17.0741 12.8 16.9807 13.36C16.9007 13.92 16.8607 14.4333 16.8607 14.9C16.8607 15.1533 16.8874 15.36 16.9407 15.52C16.9941 15.68 17.1274 15.76 17.3407 15.76C17.5274 15.76 17.7607 15.5733 18.0407 15.2C18.3341 14.8267 18.6474 14.3333 18.9807 13.72C19.3274 13.0933 19.6807 12.4 20.0407 11.64C20.4141 10.88 20.7741 10.1 21.1207 9.29999C21.4807 8.49999 21.8074 7.73999 22.1007 7.01999C22.2074 6.77999 22.3207 6.63332 22.4407 6.57999C22.5607 6.51332 22.6941 6.47999 22.8407 6.47999C23.0807 6.47999 23.2941 6.57999 23.4807 6.77999C23.6807 6.96666 23.7807 7.21332 23.7807 7.51999C23.7807 7.71999 23.7407 8.06666 23.6607 8.55999C23.5941 9.05332 23.4941 9.63332 23.3607 10.3C23.2407 10.9533 23.1007 11.6467 22.9407 12.38C22.7941 13.1133 22.6474 13.84 22.5007 14.56C22.3541 15.2667 22.2141 15.9133 22.0807 16.5C21.9607 17.0867 21.8607 17.56 21.7807 17.92C21.7141 18.2533 21.6207 18.4667 21.5007 18.56C21.3941 18.6667 21.2741 18.72 21.1407 18.72ZM33.9456 8.17999C34.3056 7.31332 34.6456 6.41999 34.9656 5.49999C35.2989 4.57999 35.5989 3.63999 35.8656 2.67999C35.9456 2.41332 36.0656 2.19999 36.2256 2.03999C36.3989 1.86666 36.5989 1.77999 36.8256 1.77999C36.9856 1.77999 37.1189 1.83999 37.2256 1.95999C37.3456 2.07999 37.4056 2.23999 37.4056 2.43999C37.4056 2.69332 37.3056 3.13332 37.1056 3.75999C36.9189 4.38666 36.6789 5.17999 36.3856 6.13999C36.1056 7.09999 35.8189 8.20666 35.5256 9.45999C35.2456 10.7 35.0056 12.0733 34.8056 13.58C34.6189 15.0867 34.5256 16.6933 34.5256 18.4C34.5256 18.7733 34.4456 19.08 34.2856 19.32C34.1256 19.5733 33.9323 19.7 33.7056 19.7C33.5723 19.7 33.4456 19.6667 33.3256 19.6C33.2056 19.5333 33.0989 19.3733 33.0056 19.12C32.9256 18.88 32.8589 18.5 32.8056 17.98C32.7523 17.4467 32.7256 16.7267 32.7256 15.82C32.7256 15.1267 32.7656 14.3733 32.8456 13.56C32.2323 14.6667 31.5656 15.6333 30.8456 16.46C30.1389 17.2733 29.4523 17.9 28.7856 18.34C28.1323 18.78 27.5723 19 27.1056 19C26.5323 19 26.0656 18.8067 25.7056 18.42C25.3589 18.0467 25.1856 17.4867 25.1856 16.74C25.1856 16.0867 25.3389 15.4133 25.6456 14.72C25.9523 14.0267 26.3589 13.3467 26.8656 12.68C27.3723 12 27.9323 11.36 28.5456 10.76C29.1589 10.16 29.7723 9.63332 30.3856 9.17999C31.0123 8.71332 31.5923 8.35332 32.1256 8.09999C32.6589 7.83332 33.0923 7.69999 33.4256 7.69999C33.5589 7.69999 33.6789 7.74666 33.7856 7.83999C33.8923 7.93332 33.9456 8.04666 33.9456 8.17999ZM33.6856 8.79999C33.5923 8.89332 33.4789 8.98666 33.3456 9.07999C33.2123 9.17332 33.0656 9.27332 32.9056 9.37999C32.3189 9.79332 31.6723 10.2733 30.9656 10.82C30.2723 11.3533 29.6056 11.94 28.9656 12.58C28.3389 13.2067 27.8256 13.8667 27.4256 14.56C27.0256 15.2533 26.8256 15.9667 26.8256 16.7C26.8256 17.02 26.9856 17.18 27.3056 17.18C27.7456 17.18 28.2256 16.9733 28.7456 16.56C29.2789 16.1333 29.8256 15.5467 30.3856 14.8C30.9456 14.04 31.5056 13.1533 32.0656 12.14C32.6256 11.1133 33.1656 9.99999 33.6856 8.79999ZM41.5162 18.44C40.7295 18.44 40.1095 18.14 39.6562 17.54C39.2029 16.94 38.9762 16.16 38.9762 15.2C38.9762 14.8533 39.0229 14.4867 39.1162 14.1C39.2229 13.7 39.3562 13.34 39.5162 13.02C39.4229 12.9267 39.3495 12.8 39.2962 12.64C39.2429 12.4667 39.2162 12.2533 39.2162 12C39.2162 11.2133 39.3495 10.4933 39.6162 9.83999C39.8829 9.18666 40.2362 8.61999 40.6762 8.13999C41.1162 7.64666 41.6029 7.26666 42.1362 6.99999C42.6829 6.73332 43.2362 6.59999 43.7962 6.59999C44.7162 6.59999 45.4629 6.93332 46.0362 7.59999C46.6095 8.25332 46.8962 9.25332 46.8962 10.6C46.8962 11.3067 46.7895 12.0267 46.5762 12.76C46.3762 13.4933 46.0962 14.2 45.7362 14.88C45.3895 15.56 44.9829 16.1667 44.5162 16.7C44.0629 17.2333 43.5762 17.66 43.0562 17.98C42.5495 18.2867 42.0362 18.44 41.5162 18.44ZM40.8362 12.34C40.9162 12.4467 40.9562 12.5867 40.9562 12.76C40.9562 12.96 40.9162 13.16 40.8362 13.36C40.7695 13.56 40.6962 13.8333 40.6162 14.18C40.5362 14.5267 40.4962 15.02 40.4962 15.66C40.4962 16.3 40.7495 16.62 41.2562 16.62C41.8162 16.62 42.3362 16.4 42.8162 15.96C43.2962 15.5067 43.7229 14.9267 44.0962 14.22C44.4695 13.5133 44.7562 12.76 44.9562 11.96C45.1695 11.1467 45.2762 10.38 45.2762 9.65999C45.2762 9.19332 45.1895 8.86666 45.0162 8.67999C44.8429 8.47999 44.5295 8.37999 44.0762 8.37999C43.6095 8.37999 43.1229 8.53999 42.6162 8.85999C42.1229 9.16666 41.7095 9.58666 41.3762 10.12C41.0429 10.6533 40.8762 11.2533 40.8762 11.92C40.8762 12.0667 40.8629 12.2067 40.8362 12.34ZM51.5348 17.74C51.3348 17.74 51.1348 17.5933 50.9348 17.3C50.7481 17.0067 50.6081 16.5933 50.5148 16.06C50.4215 15.5 50.3348 14.86 50.2548 14.14C50.1748 13.42 50.1081 12.7133 50.0548 12.02C50.0015 11.3267 49.9615 10.7133 49.9348 10.18C49.9081 9.64666 49.8948 9.28666 49.8948 9.09999C49.8948 8.40666 50.0015 7.89332 50.2148 7.55999C50.4415 7.21332 50.7281 7.03999 51.0748 7.03999C51.3148 7.03999 51.4881 7.10666 51.5948 7.23999C51.7015 7.35999 51.7548 7.63999 51.7548 8.07999C51.7548 8.37332 51.7615 8.75332 51.7748 9.21999C51.7881 9.68666 51.8081 10.1933 51.8348 10.74C51.8615 11.3933 51.8881 12.0867 51.9148 12.82C51.9415 13.54 51.9615 14.2533 51.9748 14.96C52.2948 14.4267 52.6615 13.8333 53.0748 13.18C53.5015 12.5267 53.9348 11.86 54.3748 11.18C54.8148 10.4867 55.2415 9.82666 55.6548 9.19999C56.0681 8.57332 56.4348 8.02666 56.7548 7.55999C57.0748 7.09332 57.3215 6.75332 57.4948 6.53999C57.7215 6.27332 57.9281 6.08666 58.1148 5.97999C58.3148 5.87332 58.4881 5.81999 58.6348 5.81999C58.8348 5.81999 58.9948 5.89332 59.1148 6.03999C59.2481 6.18666 59.3148 6.39332 59.3148 6.65999C59.3148 6.81999 59.2815 6.99999 59.2148 7.19999C59.1615 7.38666 59.0615 7.57999 58.9148 7.77999C58.5548 8.32666 58.1215 8.96666 57.6148 9.69999C57.1081 10.4333 56.5815 11.1933 56.0348 11.98C55.4881 12.7667 54.9548 13.5333 54.4348 14.28C53.9148 15.0133 53.4615 15.66 53.0748 16.22C52.3948 17.2333 51.8815 17.74 51.5348 17.74ZM60.9411 18.34C60.6877 18.34 60.4611 18.2467 60.2611 18.06C60.0611 17.86 59.9611 17.5533 59.9611 17.14C59.9611 16.8467 60.0011 16.44 60.0811 15.92C60.1611 15.3867 60.2677 14.8067 60.4011 14.18C60.5344 13.5533 60.6744 12.9333 60.8211 12.32C60.9811 11.6933 61.1411 11.1333 61.3011 10.64C61.4611 10.1467 61.6011 9.77999 61.7211 9.53999C61.8277 9.35332 61.9277 9.23332 62.0211 9.17999C62.1277 9.12666 62.2277 9.09999 62.3211 9.09999C62.5077 9.09999 62.6677 9.15999 62.8011 9.27999C62.9477 9.39999 63.0211 9.63332 63.0211 9.97999C63.0211 10.18 62.9811 10.5133 62.9011 10.98C62.8344 11.4333 62.7411 11.9667 62.6211 12.58C62.5144 13.18 62.3944 13.8 62.2611 14.44C62.1411 15.0667 62.0211 15.6667 61.9011 16.24C61.7811 16.8133 61.6877 17.2933 61.6211 17.68C61.5677 17.8933 61.4744 18.06 61.3411 18.18C61.2211 18.2867 61.0877 18.34 60.9411 18.34ZM62.9011 7.27999C62.5944 7.27999 62.3011 7.18666 62.0211 6.99999C61.7544 6.81332 61.6211 6.51332 61.6211 6.09999C61.6211 5.75332 61.7011 5.47332 61.8611 5.25999C62.0344 5.04666 62.2344 4.89332 62.4611 4.79999C62.7011 4.69332 62.9077 4.63999 63.0811 4.63999C63.2544 4.63999 63.4477 4.67999 63.6611 4.75999C63.8877 4.82666 64.0811 4.95999 64.2411 5.15999C64.4011 5.34666 64.4811 5.62666 64.4811 5.99999C64.4811 6.25332 64.3944 6.47999 64.2211 6.67999C64.0477 6.86666 63.8344 7.01332 63.5811 7.11999C63.3411 7.22666 63.1144 7.27999 62.9011 7.27999ZM68.949 18.52C68.2957 18.52 67.729 18.3733 67.249 18.08C66.7824 17.7733 66.4224 17.38 66.169 16.9C65.9157 16.42 65.789 15.9267 65.789 15.42C65.789 14.3533 65.9757 13.38 66.349 12.5C66.7224 11.6067 67.189 10.82 67.749 10.14C68.3224 9.44666 68.909 8.85999 69.509 8.37999C70.1224 7.89999 70.6757 7.53999 71.169 7.29999C71.6757 7.04666 72.0357 6.91999 72.249 6.91999C72.6757 6.91999 72.889 7.13332 72.889 7.55999C72.889 7.75999 72.7557 7.99332 72.489 8.25999C72.2224 8.51332 71.8824 8.81332 71.469 9.15999C71.0557 9.50666 70.6157 9.89999 70.149 10.34C69.6824 10.7667 69.2424 11.2533 68.829 11.8C68.4157 12.3333 68.0757 12.9333 67.809 13.6C67.5424 14.2533 67.409 14.9733 67.409 15.76C67.409 16.56 67.7357 16.96 68.389 16.96C68.989 16.96 69.6024 16.8467 70.229 16.62C70.869 16.3933 71.4957 16.1 72.109 15.74C72.7357 15.3667 73.3357 14.98 73.909 14.58C74.4824 14.18 75.0024 13.8 75.469 13.44C75.9357 13.0667 76.329 12.7667 76.649 12.54C76.969 12.3133 77.1957 12.2 77.329 12.2C77.5957 12.2 77.729 12.3467 77.729 12.64C77.729 12.8667 77.5757 13.1667 77.269 13.54C76.9624 13.9133 76.549 14.32 76.029 14.76C75.509 15.2 74.929 15.6467 74.289 16.1C73.649 16.54 73.0024 16.9467 72.349 17.32C71.6957 17.68 71.069 17.9733 70.469 18.2C69.8824 18.4133 69.3757 18.52 68.949 18.52ZM77.8157 18.76C77.3091 18.76 76.8891 18.5267 76.5557 18.06C76.2357 17.58 76.0757 16.96 76.0757 16.2C76.0757 15.4933 76.2491 14.7933 76.5957 14.1C76.9557 13.4067 77.4291 12.74 78.0157 12.1C78.6024 11.46 79.2424 10.8733 79.9357 10.34C80.6291 9.79332 81.3224 9.31999 82.0157 8.91999C82.7224 8.51999 83.3691 8.20666 83.9557 7.97999C84.5424 7.75332 85.0091 7.63999 85.3557 7.63999C85.5424 7.63999 85.6957 7.67999 85.8157 7.75999C85.9357 7.82666 85.9957 7.95332 85.9957 8.13999C85.9957 8.25999 85.9491 8.37332 85.8557 8.47999C85.8691 8.47999 85.8824 8.47999 85.8957 8.47999C86.1891 8.47999 86.3357 8.65332 86.3357 8.99999C86.3357 9.11999 86.2891 9.36666 86.1957 9.73999C86.1024 10.1 85.9957 10.5533 85.8757 11.1C85.7557 11.6467 85.6491 12.2533 85.5557 12.92C85.4624 13.5733 85.4157 14.24 85.4157 14.92C85.4157 15.4933 85.6357 15.78 86.0757 15.78C86.5691 15.78 87.0691 15.6667 87.5757 15.44C88.0824 15.2133 88.5757 14.94 89.0557 14.62C89.5357 14.2867 89.9757 13.96 90.3757 13.64C90.7757 13.3067 91.1157 13.0267 91.3957 12.8C91.6757 12.5733 91.8757 12.46 91.9957 12.46C92.1024 12.46 92.1957 12.4933 92.2757 12.56C92.3557 12.6267 92.3957 12.7333 92.3957 12.88C92.3957 13.0133 92.2624 13.2533 91.9957 13.6C91.7291 13.9467 91.3757 14.34 90.9357 14.78C90.4957 15.22 90.0024 15.6467 89.4557 16.06C88.9091 16.4733 88.3491 16.8133 87.7757 17.08C87.2024 17.3467 86.6557 17.48 86.1357 17.48C85.7357 17.48 85.3691 17.36 85.0357 17.12C84.7157 16.8667 84.4557 16.44 84.2557 15.84C84.0691 15.24 83.9757 14.4133 83.9757 13.36V12.86C83.3224 13.94 82.6357 14.9267 81.9157 15.82C81.2091 16.7133 80.5024 17.4267 79.7957 17.96C79.1024 18.4933 78.4424 18.76 77.8157 18.76ZM84.9757 9.07999C84.9091 9.10666 84.8157 9.14666 84.6957 9.19999C84.0824 9.47999 83.4424 9.82666 82.7757 10.24C82.1224 10.6533 81.4824 11.1133 80.8557 11.62C80.2424 12.1267 79.6891 12.6533 79.1957 13.2C78.7024 13.7467 78.3091 14.3 78.0157 14.86C77.7224 15.42 77.5757 15.9667 77.5757 16.5C77.5757 16.6733 77.6091 16.8067 77.6757 16.9C77.7557 16.9933 77.8891 17.04 78.0757 17.04C78.3424 17.04 78.6891 16.8733 79.1157 16.54C79.5424 16.1933 80.0091 15.74 80.5157 15.18C81.0357 14.62 81.5557 14 82.0757 13.32C82.5957 12.64 83.0891 11.9533 83.5557 11.26C84.0357 10.5667 84.4491 9.92666 84.7957 9.33999C84.8491 9.24666 84.9091 9.15999 84.9757 9.07999ZM108.608 9.61999C108.608 10.0467 108.475 10.4667 108.208 10.88C107.941 11.28 107.588 11.6667 107.148 12.04C106.708 12.4 106.221 12.74 105.688 13.06C105.155 13.38 104.621 13.66 104.088 13.9C103.555 14.14 103.068 14.3333 102.628 14.48C102.521 15 102.468 15.46 102.468 15.86C102.468 16.1133 102.528 16.2933 102.648 16.4C102.768 16.5067 102.955 16.56 103.208 16.56C103.768 16.56 104.361 16.46 104.988 16.26C105.615 16.06 106.255 15.8 106.908 15.48C107.561 15.16 108.188 14.82 108.788 14.46C109.388 14.1 109.935 13.76 110.428 13.44C110.935 13.12 111.355 12.86 111.688 12.66C112.021 12.46 112.241 12.36 112.348 12.36C112.508 12.36 112.628 12.4133 112.708 12.52C112.801 12.6133 112.848 12.7267 112.848 12.86C112.848 12.9667 112.681 13.1733 112.348 13.48C112.028 13.7867 111.595 14.1467 111.048 14.56C110.501 14.96 109.888 15.3733 109.208 15.8C108.528 16.2267 107.821 16.6267 107.088 17C106.368 17.3733 105.668 17.6733 104.988 17.9C104.321 18.1267 103.721 18.24 103.188 18.24C102.495 18.24 101.955 17.98 101.568 17.46C101.181 16.94 100.988 16.1333 100.988 15.04C100.988 14.3067 101.081 13.5667 101.268 12.82C101.468 12.0733 101.735 11.36 102.068 10.68C102.415 9.98666 102.795 9.37332 103.208 8.83999C103.635 8.29332 104.081 7.86666 104.548 7.55999C105.015 7.23999 105.468 7.07999 105.908 7.07999C106.748 7.07999 107.408 7.31332 107.888 7.77999C108.368 8.24666 108.608 8.85999 108.608 9.61999ZM103.048 12.94C103.461 12.6867 103.888 12.42 104.328 12.14C104.768 11.86 105.175 11.5733 105.548 11.28C105.921 10.9867 106.221 10.68 106.448 10.36C106.688 10.0267 106.808 9.68666 106.808 9.33999C106.808 8.84666 106.541 8.59999 106.008 8.59999C105.675 8.59999 105.321 8.81332 104.948 9.23999C104.588 9.65332 104.241 10.1933 103.908 10.86C103.575 11.5267 103.288 12.22 103.048 12.94ZM105.308 5.75999C104.988 5.75999 104.828 5.57332 104.828 5.19999C104.828 5.02666 104.895 4.77332 105.028 4.43999C105.161 4.10666 105.335 3.72666 105.548 3.29999C105.761 2.87332 105.988 2.43332 106.228 1.97999C106.481 1.52666 106.728 1.09999 106.968 0.69999C107.048 0.553322 107.148 0.433322 107.268 0.339989C107.401 0.246656 107.548 0.199989 107.708 0.199989C107.855 0.199989 108.021 0.293322 108.208 0.479989C108.395 0.653322 108.488 0.906656 108.488 1.23999C108.488 1.37332 108.401 1.59999 108.228 1.91999C108.055 2.23999 107.835 2.60666 107.568 3.01999C107.301 3.43332 107.028 3.83999 106.748 4.23999C106.468 4.63999 106.215 4.99332 105.988 5.29999C105.881 5.44666 105.775 5.55999 105.668 5.63999C105.575 5.71999 105.455 5.75999 105.308 5.75999ZM121.619 20.02C121.392 20.02 121.212 19.94 121.079 19.78C120.945 19.62 120.879 19.3533 120.879 18.98C120.879 18.3133 120.912 17.6267 120.979 16.92C121.059 16.2 121.099 15.5333 121.099 14.92C121.099 13.52 120.972 12.3667 120.719 11.46C120.479 10.54 119.952 9.91999 119.139 9.59999C118.952 9.53332 118.819 9.45999 118.739 9.37999C118.645 9.29999 118.599 9.17332 118.599 8.99999C118.599 8.81332 118.672 8.65999 118.819 8.53999C118.952 8.41999 119.205 8.35999 119.579 8.35999C119.885 8.35999 120.292 8.37332 120.799 8.39999C121.305 8.42666 121.852 8.45332 122.439 8.47999C122.852 6.99999 123.319 5.77332 123.839 4.79999C124.359 3.82666 124.925 3.05999 125.539 2.49999C126.165 1.93999 126.825 1.53999 127.519 1.29999C128.225 1.05999 128.959 0.939989 129.719 0.939989C130.052 0.939989 130.265 0.986656 130.359 1.07999C130.452 1.15999 130.499 1.28666 130.499 1.45999C130.499 1.67332 130.432 1.89999 130.299 2.13999C130.165 2.36666 129.892 2.51332 129.479 2.57999C128.572 2.73999 127.765 3.03332 127.059 3.45999C126.352 3.88666 125.739 4.50666 125.219 5.31999C124.699 6.11999 124.265 7.17332 123.919 8.47999C125.199 8.45332 126.299 8.38666 127.219 8.27999C128.139 8.15999 128.905 8.03332 129.519 7.89999C130.145 7.75332 130.645 7.63332 131.019 7.53999C131.392 7.43332 131.679 7.37999 131.879 7.37999C132.105 7.37999 132.245 7.43999 132.299 7.55999C132.352 7.67999 132.379 7.80666 132.379 7.93999C132.379 8.19332 132.139 8.43999 131.659 8.67999C131.179 8.90666 130.545 9.11332 129.759 9.29999C128.985 9.47332 128.132 9.61332 127.199 9.71999C126.265 9.82666 125.345 9.87999 124.439 9.87999C124.292 9.87999 124.145 9.87999 123.999 9.87999C123.865 9.87999 123.725 9.87999 123.579 9.87999C123.552 9.97332 123.532 10.0733 123.519 10.18C123.385 10.9533 123.252 11.7733 123.119 12.64C122.999 13.4933 122.885 14.3333 122.779 15.16C122.685 15.9733 122.612 16.7133 122.559 17.38C122.505 18.0467 122.479 18.58 122.479 18.98C122.479 19.3133 122.399 19.5667 122.239 19.74C122.079 19.9267 121.872 20.02 121.619 20.02ZM122.099 9.79999C121.712 9.75999 121.352 9.70666 121.019 9.63999C121.192 9.83999 121.339 10.0733 121.459 10.34C121.592 10.6067 121.705 10.8933 121.799 11.2C121.892 10.7067 121.992 10.24 122.099 9.79999ZM137.163 9.61999C137.163 10.0467 137.029 10.4667 136.763 10.88C136.496 11.28 136.143 11.6667 135.703 12.04C135.263 12.4 134.776 12.74 134.243 13.06C133.709 13.38 133.176 13.66 132.643 13.9C132.109 14.14 131.623 14.3333 131.183 14.48C131.076 15 131.023 15.46 131.023 15.86C131.023 16.1133 131.083 16.2933 131.203 16.4C131.323 16.5067 131.509 16.56 131.763 16.56C132.323 16.56 132.916 16.46 133.543 16.26C134.169 16.06 134.809 15.8 135.463 15.48C136.116 15.16 136.743 14.82 137.343 14.46C137.943 14.1 138.489 13.76 138.983 13.44C139.489 13.12 139.909 12.86 140.243 12.66C140.576 12.46 140.796 12.36 140.903 12.36C141.063 12.36 141.183 12.4133 141.263 12.52C141.356 12.6133 141.403 12.7267 141.403 12.86C141.403 12.9667 141.236 13.1733 140.903 13.48C140.583 13.7867 140.149 14.1467 139.603 14.56C139.056 14.96 138.443 15.3733 137.763 15.8C137.083 16.2267 136.376 16.6267 135.643 17C134.923 17.3733 134.223 17.6733 133.543 17.9C132.876 18.1267 132.276 18.24 131.743 18.24C131.049 18.24 130.509 17.98 130.123 17.46C129.736 16.94 129.543 16.1333 129.543 15.04C129.543 14.3067 129.636 13.5667 129.823 12.82C130.023 12.0733 130.289 11.36 130.623 10.68C130.969 9.98666 131.349 9.37332 131.763 8.83999C132.189 8.29332 132.636 7.86666 133.103 7.55999C133.569 7.23999 134.023 7.07999 134.463 7.07999C135.303 7.07999 135.963 7.31332 136.443 7.77999C136.923 8.24666 137.163 8.85999 137.163 9.61999ZM131.603 12.94C132.016 12.6867 132.443 12.42 132.883 12.14C133.323 11.86 133.729 11.5733 134.103 11.28C134.476 10.9867 134.776 10.68 135.003 10.36C135.243 10.0267 135.363 9.68666 135.363 9.33999C135.363 8.84666 135.096 8.59999 134.563 8.59999C134.229 8.59999 133.876 8.81332 133.503 9.23999C133.143 9.65332 132.796 10.1933 132.463 10.86C132.129 11.5267 131.843 12.22 131.603 12.94ZM143.749 19.04C142.723 19.04 141.916 18.7067 141.329 18.04C140.756 17.36 140.469 16.4133 140.469 15.2C140.469 14.4533 140.569 13.58 140.769 12.58C140.983 11.5667 141.249 10.5 141.569 9.37999C141.903 8.24666 142.263 7.12666 142.649 6.01999C143.036 4.91332 143.409 3.88666 143.769 2.93999C144.143 1.97999 144.469 1.17999 144.749 0.539989C144.909 0.179989 145.136 -1.09673e-05 145.429 -1.09673e-05C145.829 -1.09673e-05 146.029 0.246656 146.029 0.739989C146.029 0.899989 145.956 1.22666 145.809 1.71999C145.663 2.21332 145.469 2.82666 145.229 3.55999C144.989 4.27999 144.729 5.07999 144.449 5.95999C144.169 6.83999 143.883 7.74666 143.589 8.67999C143.309 9.59999 143.049 10.5133 142.809 11.42C142.569 12.3133 142.376 13.1533 142.229 13.94C142.083 14.7267 142.009 15.4 142.009 15.96C142.009 16.32 142.103 16.6067 142.289 16.82C142.489 17.02 142.756 17.12 143.089 17.12C143.703 17.12 144.316 17 144.929 16.76C145.556 16.5067 146.156 16.2 146.729 15.84C147.303 15.4667 147.823 15.1 148.289 14.74C148.769 14.3667 149.176 14.06 149.509 13.82C149.843 13.5667 150.076 13.44 150.209 13.44C150.503 13.44 150.649 13.6 150.649 13.92C150.649 14.0267 150.543 14.2267 150.329 14.52C150.116 14.8 149.829 15.1333 149.469 15.52C149.109 15.9067 148.689 16.3067 148.209 16.72C147.743 17.12 147.249 17.5 146.729 17.86C146.223 18.2067 145.709 18.4867 145.189 18.7C144.683 18.9267 144.203 19.04 143.749 19.04ZM150.648 18.34C150.395 18.34 150.168 18.2467 149.968 18.06C149.768 17.86 149.668 17.5533 149.668 17.14C149.668 16.8467 149.708 16.44 149.788 15.92C149.868 15.3867 149.975 14.8067 150.108 14.18C150.241 13.5533 150.381 12.9333 150.528 12.32C150.688 11.6933 150.848 11.1333 151.008 10.64C151.168 10.1467 151.308 9.77999 151.428 9.53999C151.535 9.35332 151.635 9.23332 151.728 9.17999C151.835 9.12666 151.935 9.09999 152.028 9.09999C152.215 9.09999 152.375 9.15999 152.508 9.27999C152.655 9.39999 152.728 9.63332 152.728 9.97999C152.728 10.18 152.688 10.5133 152.608 10.98C152.541 11.4333 152.448 11.9667 152.328 12.58C152.221 13.18 152.101 13.8 151.968 14.44C151.848 15.0667 151.728 15.6667 151.608 16.24C151.488 16.8133 151.395 17.2933 151.328 17.68C151.275 17.8933 151.181 18.06 151.048 18.18C150.928 18.2867 150.795 18.34 150.648 18.34ZM152.608 7.27999C152.301 7.27999 152.008 7.18666 151.728 6.99999C151.461 6.81332 151.328 6.51332 151.328 6.09999C151.328 5.75332 151.408 5.47332 151.568 5.25999C151.741 5.04666 151.941 4.89332 152.168 4.79999C152.408 4.69332 152.615 4.63999 152.788 4.63999C152.961 4.63999 153.155 4.67999 153.368 4.75999C153.595 4.82666 153.788 4.95999 153.948 5.15999C154.108 5.34666 154.188 5.62666 154.188 5.99999C154.188 6.25332 154.101 6.47999 153.928 6.67999C153.755 6.86666 153.541 7.01332 153.288 7.11999C153.048 7.22666 152.821 7.27999 152.608 7.27999ZM158.656 18.52C158.003 18.52 157.436 18.3733 156.956 18.08C156.489 17.7733 156.129 17.38 155.876 16.9C155.623 16.42 155.496 15.9267 155.496 15.42C155.496 14.3533 155.683 13.38 156.056 12.5C156.429 11.6067 156.896 10.82 157.456 10.14C158.029 9.44666 158.616 8.85999 159.216 8.37999C159.829 7.89999 160.383 7.53999 160.876 7.29999C161.383 7.04666 161.743 6.91999 161.956 6.91999C162.383 6.91999 162.596 7.13332 162.596 7.55999C162.596 7.75999 162.463 7.99332 162.196 8.25999C161.929 8.51332 161.589 8.81332 161.176 9.15999C160.763 9.50666 160.323 9.89999 159.856 10.34C159.389 10.7667 158.949 11.2533 158.536 11.8C158.123 12.3333 157.783 12.9333 157.516 13.6C157.249 14.2533 157.116 14.9733 157.116 15.76C157.116 16.56 157.443 16.96 158.096 16.96C158.696 16.96 159.309 16.8467 159.936 16.62C160.576 16.3933 161.203 16.1 161.816 15.74C162.443 15.3667 163.043 14.98 163.616 14.58C164.189 14.18 164.709 13.8 165.176 13.44C165.643 13.0667 166.036 12.7667 166.356 12.54C166.676 12.3133 166.903 12.2 167.036 12.2C167.303 12.2 167.436 12.3467 167.436 12.64C167.436 12.8667 167.283 13.1667 166.976 13.54C166.669 13.9133 166.256 14.32 165.736 14.76C165.216 15.2 164.636 15.6467 163.996 16.1C163.356 16.54 162.709 16.9467 162.056 17.32C161.403 17.68 160.776 17.9733 160.176 18.2C159.589 18.4133 159.083 18.52 158.656 18.52ZM174.663 9.61999C174.663 10.0467 174.529 10.4667 174.263 10.88C173.996 11.28 173.643 11.6667 173.203 12.04C172.763 12.4 172.276 12.74 171.743 13.06C171.209 13.38 170.676 13.66 170.143 13.9C169.609 14.14 169.123 14.3333 168.683 14.48C168.576 15 168.523 15.46 168.523 15.86C168.523 16.1133 168.583 16.2933 168.703 16.4C168.823 16.5067 169.009 16.56 169.263 16.56C169.823 16.56 170.416 16.46 171.043 16.26C171.669 16.06 172.309 15.8 172.963 15.48C173.616 15.16 174.243 14.82 174.843 14.46C175.443 14.1 175.989 13.76 176.483 13.44C176.989 13.12 177.409 12.86 177.743 12.66C178.076 12.46 178.296 12.36 178.403 12.36C178.563 12.36 178.683 12.4133 178.763 12.52C178.856 12.6133 178.903 12.7267 178.903 12.86C178.903 12.9667 178.736 13.1733 178.403 13.48C178.083 13.7867 177.649 14.1467 177.103 14.56C176.556 14.96 175.943 15.3733 175.263 15.8C174.583 16.2267 173.876 16.6267 173.143 17C172.423 17.3733 171.723 17.6733 171.043 17.9C170.376 18.1267 169.776 18.24 169.243 18.24C168.549 18.24 168.009 17.98 167.623 17.46C167.236 16.94 167.043 16.1333 167.043 15.04C167.043 14.3067 167.136 13.5667 167.323 12.82C167.523 12.0733 167.789 11.36 168.123 10.68C168.469 9.98666 168.849 9.37332 169.263 8.83999C169.689 8.29332 170.136 7.86666 170.603 7.55999C171.069 7.23999 171.523 7.07999 171.963 7.07999C172.803 7.07999 173.463 7.31332 173.943 7.77999C174.423 8.24666 174.663 8.85999 174.663 9.61999ZM169.103 12.94C169.516 12.6867 169.943 12.42 170.383 12.14C170.823 11.86 171.229 11.5733 171.603 11.28C171.976 10.9867 172.276 10.68 172.503 10.36C172.743 10.0267 172.863 9.68666 172.863 9.33999C172.863 8.84666 172.596 8.59999 172.063 8.59999C171.729 8.59999 171.376 8.81332 171.003 9.23999C170.643 9.65332 170.296 10.1933 169.963 10.86C169.629 11.5267 169.343 12.22 169.103 12.94ZM8.76004 36.18C9.12004 35.3133 9.46004 34.42 9.78004 33.5C10.1134 32.58 10.4134 31.64 10.68 30.68C10.76 30.4133 10.88 30.2 11.04 30.04C11.2134 29.8667 11.4134 29.78 11.64 29.78C11.8 29.78 11.9334 29.84 12.04 29.96C12.16 30.08 12.22 30.24 12.22 30.44C12.22 30.6933 12.12 31.1333 11.92 31.76C11.7334 32.3867 11.4934 33.18 11.2 34.14C10.92 35.1 10.6334 36.2067 10.34 37.46C10.06 38.7 9.82004 40.0733 9.62004 41.58C9.43338 43.0867 9.34004 44.6933 9.34004 46.4C9.34004 46.7733 9.26004 47.08 9.10004 47.32C8.94004 47.5733 8.74671 47.7 8.52004 47.7C8.38671 47.7 8.26004 47.6667 8.14004 47.6C8.02004 47.5333 7.91338 47.3733 7.82004 47.12C7.74004 46.88 7.67338 46.5 7.62004 45.98C7.56671 45.4467 7.54004 44.7267 7.54004 43.82C7.54004 43.1267 7.58004 42.3733 7.66004 41.56C7.04671 42.6667 6.38004 43.6333 5.66004 44.46C4.95338 45.2733 4.26671 45.9 3.60004 46.34C2.94671 46.78 2.38671 47 1.92004 47C1.34671 47 0.880044 46.8067 0.520044 46.42C0.173377 46.0467 4.39659e-05 45.4867 4.39659e-05 44.74C4.39659e-05 44.0867 0.153377 43.4133 0.460044 42.72C0.766711 42.0267 1.17338 41.3467 1.68004 40.68C2.18671 40 2.74671 39.36 3.36004 38.76C3.97338 38.16 4.58671 37.6333 5.20004 37.18C5.82671 36.7133 6.40671 36.3533 6.94004 36.1C7.47338 35.8333 7.90671 35.7 8.24004 35.7C8.37338 35.7 8.49338 35.7467 8.60004 35.84C8.70671 35.9333 8.76004 36.0467 8.76004 36.18ZM8.50004 36.8C8.40671 36.8933 8.29338 36.9867 8.16004 37.08C8.02671 37.1733 7.88004 37.2733 7.72004 37.38C7.13338 37.7933 6.48671 38.2733 5.78004 38.82C5.08671 39.3533 4.42004 39.94 3.78004 40.58C3.15338 41.2067 2.64004 41.8667 2.24004 42.56C1.84004 43.2533 1.64004 43.9667 1.64004 44.7C1.64004 45.02 1.80004 45.18 2.12004 45.18C2.56004 45.18 3.04004 44.9733 3.56004 44.56C4.09338 44.1333 4.64004 43.5467 5.20004 42.8C5.76004 42.04 6.32004 41.1533 6.88004 40.14C7.44004 39.1133 7.98004 38 8.50004 36.8ZM14.2907 46.34C14.0373 46.34 13.8107 46.2467 13.6107 46.06C13.4107 45.86 13.3107 45.5533 13.3107 45.14C13.3107 44.8467 13.3507 44.44 13.4307 43.92C13.5107 43.3867 13.6173 42.8067 13.7507 42.18C13.884 41.5533 14.024 40.9333 14.1707 40.32C14.3307 39.6933 14.4907 39.1333 14.6507 38.64C14.8107 38.1467 14.9507 37.78 15.0707 37.54C15.1773 37.3533 15.2773 37.2333 15.3707 37.18C15.4773 37.1267 15.5773 37.1 15.6707 37.1C15.8573 37.1 16.0173 37.16 16.1507 37.28C16.2973 37.4 16.3707 37.6333 16.3707 37.98C16.3707 38.18 16.3307 38.5133 16.2507 38.98C16.184 39.4333 16.0907 39.9667 15.9707 40.58C15.864 41.18 15.744 41.8 15.6107 42.44C15.4907 43.0667 15.3707 43.6667 15.2507 44.24C15.1307 44.8133 15.0373 45.2933 14.9707 45.68C14.9173 45.8933 14.824 46.06 14.6907 46.18C14.5707 46.2867 14.4373 46.34 14.2907 46.34ZM16.2507 35.28C15.944 35.28 15.6507 35.1867 15.3707 35C15.104 34.8133 14.9707 34.5133 14.9707 34.1C14.9707 33.7533 15.0507 33.4733 15.2107 33.26C15.384 33.0467 15.584 32.8933 15.8107 32.8C16.0507 32.6933 16.2573 32.64 16.4307 32.64C16.604 32.64 16.7973 32.68 17.0107 32.76C17.2373 32.8267 17.4307 32.96 17.5907 33.16C17.7507 33.3467 17.8307 33.6267 17.8307 34C17.8307 34.2533 17.744 34.48 17.5707 34.68C17.3973 34.8667 17.184 35.0133 16.9307 35.12C16.6907 35.2267 16.464 35.28 16.2507 35.28ZM30.4241 45.86C29.9174 45.86 29.4974 45.6267 29.1641 45.16C28.8441 44.68 28.6841 44.06 28.6841 43.3C28.6841 42.6333 28.8508 41.9933 29.1841 41.38C29.5174 40.7533 29.9574 40.1533 30.5041 39.58C31.0641 39.0067 31.6841 38.48 32.3641 38C33.0441 37.5067 33.7308 37.06 34.4241 36.66C35.1308 36.26 35.7974 35.92 36.4241 35.64C37.0641 35.36 37.6108 35.1467 38.0641 35C38.5174 34.84 38.8308 34.76 39.0041 34.76C39.2974 34.76 39.4441 34.92 39.4441 35.24C39.4441 35.52 39.3308 35.7667 39.1041 35.98C38.8908 36.1933 38.6308 36.3733 38.3241 36.52C37.7641 36.8 37.1241 37.1333 36.4041 37.52C35.6974 37.8933 34.9774 38.3133 34.2441 38.78C33.5241 39.2333 32.8508 39.72 32.2241 40.24C31.6108 40.76 31.1174 41.3067 30.7441 41.88C30.3708 42.44 30.1841 43.0133 30.1841 43.6C30.1841 43.7733 30.2174 43.9067 30.2841 44C30.3641 44.0933 30.4974 44.14 30.6841 44.14C30.9241 44.14 31.2308 44.0267 31.6041 43.8C31.9908 43.56 32.4108 43.2467 32.8641 42.86C33.3308 42.46 33.7908 42.02 34.2441 41.54C34.7108 41.06 35.1441 40.5733 35.5441 40.08C35.9441 39.5733 36.2708 39.1 36.5241 38.66C36.6708 38.42 36.8374 38.22 37.0241 38.06C37.2108 37.8867 37.4108 37.8 37.6241 37.8C37.9174 37.8 38.0641 37.9733 38.0641 38.32C38.0641 38.4267 38.0241 38.7 37.9441 39.14C37.8774 39.58 37.8041 40.1133 37.7241 40.74C37.6441 41.3533 37.6041 42 37.6041 42.68C37.6041 44.1333 37.9508 44.86 38.6441 44.86C39.0308 44.86 39.4308 44.7133 39.8441 44.42C40.2708 44.1267 40.6841 43.7533 41.0841 43.3C41.4974 42.8333 41.8774 42.34 42.2241 41.82C42.5708 41.3 42.8641 40.8067 43.1041 40.34C43.3441 39.8733 43.5108 39.5 43.6041 39.22C43.8174 37.7267 44.1174 36.6533 44.5041 36C44.9041 35.3467 45.3108 35.02 45.7241 35.02C45.9908 35.02 46.2041 35.0933 46.3641 35.24C46.5241 35.3733 46.6041 35.6733 46.6041 36.14C46.6041 36.46 46.4774 36.94 46.2241 37.58C45.9708 38.22 45.6308 38.92 45.2041 39.68C45.0841 40.36 45.0174 41.06 45.0041 41.78C44.9908 42.5 45.0641 43.16 45.2241 43.76C45.5708 43.5867 45.9174 43.2733 46.2641 42.82C46.6108 42.3533 46.9641 41.8133 47.3241 41.2C47.6841 40.5867 48.0374 39.9533 48.3841 39.3C48.7441 38.6467 49.0974 38.0467 49.4441 37.5C49.8041 36.94 50.1508 36.4867 50.4841 36.14C50.8308 35.7933 51.1708 35.62 51.5041 35.62C51.9308 35.62 52.2841 35.7533 52.5641 36.02C52.8441 36.2733 53.0574 36.7267 53.2041 37.38C53.3508 38.02 53.4241 38.9267 53.4241 40.1C53.4241 40.7267 53.4841 41.3133 53.6041 41.86C53.7374 42.4067 53.9441 42.8467 54.2241 43.18C54.5174 43.5 54.8908 43.66 55.3441 43.66C56.0241 43.66 56.6308 43.54 57.1641 43.3C57.6974 43.0467 58.1574 42.7667 58.5441 42.46C58.9441 42.14 59.2774 41.86 59.5441 41.62C59.8108 41.3667 60.0174 41.24 60.1641 41.24C60.4708 41.24 60.6241 41.4 60.6241 41.72C60.6241 41.8533 60.5241 42.0667 60.3241 42.36C60.1374 42.64 59.8708 42.96 59.5241 43.32C59.1908 43.6667 58.8041 44.0067 58.3641 44.34C57.9374 44.66 57.4774 44.9267 56.9841 45.14C56.5041 45.3533 56.0174 45.46 55.5241 45.46C54.6041 45.46 53.8508 45.28 53.2641 44.92C52.6908 44.56 52.2641 43.9667 51.9841 43.14C51.7174 42.3133 51.5841 41.2067 51.5841 39.82C51.5841 39.06 51.5574 38.5067 51.5041 38.16C51.4508 37.8 51.3174 37.56 51.1041 37.44C50.9441 37.72 50.7308 38.12 50.4641 38.64C50.2108 39.1467 49.9174 39.7133 49.5841 40.34C49.2641 40.9667 48.9174 41.6 48.5441 42.24C48.1708 42.8667 47.7908 43.4467 47.4041 43.98C47.0174 44.5 46.6308 44.9267 46.2441 45.26C45.8574 45.58 45.4908 45.74 45.1441 45.74C44.9174 45.74 44.6841 45.62 44.4441 45.38C44.2041 45.1267 44.0041 44.8 43.8441 44.4C43.6841 43.9867 43.6041 43.5467 43.6041 43.08C43.6041 42.7733 43.6108 42.4867 43.6241 42.22C43.0774 42.9933 42.5041 43.7133 41.9041 44.38C41.3041 45.0333 40.7041 45.56 40.1041 45.96C39.5041 46.36 38.9441 46.56 38.4241 46.56C38.0108 46.56 37.6241 46.4133 37.2641 46.12C36.9041 45.8133 36.6108 45.3 36.3841 44.58C36.1708 43.8467 36.0508 42.8533 36.0241 41.6C35.4374 42.4267 34.8174 43.16 34.1641 43.8C33.5108 44.44 32.8641 44.9467 32.2241 45.32C31.5841 45.68 30.9841 45.86 30.4241 45.86ZM60.5836 45.78C60.197 45.78 59.8503 45.56 59.5436 45.12C59.237 44.68 59.0836 44.1133 59.0836 43.42C59.0836 42.66 59.1836 41.8467 59.3836 40.98C59.597 40.1133 59.857 39.2333 60.1636 38.34C60.4703 37.4333 60.7703 36.56 61.0636 35.72C61.1303 35.5467 61.2236 35.42 61.3436 35.34C61.477 35.2467 61.677 35.2 61.9436 35.2C62.4236 35.2 62.6636 35.4333 62.6636 35.9C62.6636 36.0067 62.6103 36.2467 62.5036 36.62C62.397 36.9933 62.257 37.4533 62.0836 38C61.9236 38.5467 61.757 39.14 61.5836 39.78C61.4103 40.4067 61.257 41.04 61.1236 41.68C60.9903 42.32 60.897 42.9133 60.8436 43.46C61.057 43.2333 61.297 42.8867 61.5636 42.42C61.8436 41.9533 62.1436 41.4267 62.4636 40.84C62.7836 40.24 63.117 39.64 63.4636 39.04C63.8103 38.4267 64.157 37.8667 64.5036 37.36C64.8636 36.84 65.2103 36.4267 65.5436 36.12C65.8903 35.8 66.2103 35.64 66.5036 35.64C66.9303 35.64 67.2903 35.7733 67.5836 36.04C67.8903 36.2933 68.1236 36.7467 68.2836 37.4C68.457 38.04 68.5436 38.9467 68.5436 40.12C68.5436 40.7467 68.6036 41.3333 68.7236 41.88C68.857 42.4267 69.0636 42.8667 69.3436 43.2C69.637 43.52 70.0103 43.68 70.4636 43.68C71.1436 43.68 71.7503 43.56 72.2836 43.32C72.817 43.0667 73.277 42.7867 73.6636 42.48C74.0636 42.16 74.397 41.88 74.6636 41.64C74.9303 41.3867 75.137 41.26 75.2836 41.26C75.5903 41.26 75.7436 41.42 75.7436 41.74C75.7436 41.8733 75.6436 42.0867 75.4436 42.38C75.257 42.66 74.9903 42.98 74.6436 43.34C74.3103 43.6867 73.9236 44.0267 73.4836 44.36C73.057 44.68 72.597 44.9467 72.1036 45.16C71.6236 45.3733 71.137 45.48 70.6436 45.48C69.7236 45.48 68.9703 45.3 68.3836 44.94C67.8103 44.58 67.3836 43.9867 67.1036 43.16C66.837 42.3333 66.7036 41.2267 66.7036 39.84C66.7036 39.08 66.657 38.5267 66.5636 38.18C66.4836 37.82 66.3303 37.58 66.1036 37.46C65.9436 37.74 65.737 38.14 65.4836 38.66C65.2303 39.1667 64.937 39.7333 64.6036 40.36C64.2836 40.9867 63.9436 41.62 63.5836 42.26C63.237 42.8867 62.8836 43.4667 62.5236 44C62.1636 44.5333 61.817 44.9667 61.4836 45.3C61.1503 45.62 60.8503 45.78 60.5836 45.78ZM80.7208 46.72C80.4942 46.72 80.3008 46.62 80.1408 46.42C79.9808 46.22 79.9008 45.9267 79.9008 45.54C79.9008 45.0867 79.9675 44.44 80.1008 43.6C80.2475 42.76 80.4608 41.6467 80.7408 40.26C80.3808 41.1133 79.9808 41.92 79.5408 42.68C79.1142 43.44 78.6608 44.06 78.1808 44.54C77.7008 45.02 77.2075 45.26 76.7008 45.26C76.2075 45.26 75.7675 45.0667 75.3808 44.68C75.0075 44.2933 74.8208 43.6133 74.8208 42.64C74.8208 42.0933 74.8675 41.48 74.9608 40.8C75.0542 40.1067 75.1742 39.42 75.3208 38.74C75.4675 38.06 75.6142 37.4533 75.7608 36.92C75.9075 36.3733 76.0408 35.9733 76.1608 35.72C76.2542 35.5067 76.3475 35.3667 76.4408 35.3C76.5342 35.22 76.6608 35.18 76.8208 35.18C77.0075 35.18 77.2075 35.26 77.4208 35.42C77.6342 35.58 77.7408 35.8467 77.7408 36.22C77.7408 36.3133 77.6942 36.5333 77.6008 36.88C77.5208 37.2133 77.4142 37.6267 77.2808 38.12C77.1608 38.6 77.0342 39.12 76.9008 39.68C76.7675 40.24 76.6542 40.8 76.5608 41.36C76.4808 41.92 76.4408 42.4333 76.4408 42.9C76.4408 43.1533 76.4675 43.36 76.5208 43.52C76.5742 43.68 76.7075 43.76 76.9208 43.76C77.1075 43.76 77.3408 43.5733 77.6208 43.2C77.9142 42.8267 78.2275 42.3333 78.5608 41.72C78.9075 41.0933 79.2608 40.4 79.6208 39.64C79.9942 38.88 80.3542 38.1 80.7008 37.3C81.0608 36.5 81.3875 35.74 81.6808 35.02C81.7875 34.78 81.9008 34.6333 82.0208 34.58C82.1408 34.5133 82.2742 34.48 82.4208 34.48C82.6608 34.48 82.8742 34.58 83.0608 34.78C83.2608 34.9667 83.3608 35.2133 83.3608 35.52C83.3608 35.72 83.3208 36.0667 83.2408 36.56C83.1742 37.0533 83.0742 37.6333 82.9408 38.3C82.8208 38.9533 82.6808 39.6467 82.5208 40.38C82.3742 41.1133 82.2275 41.84 82.0808 42.56C81.9342 43.2667 81.7942 43.9133 81.6608 44.5C81.5408 45.0867 81.4408 45.56 81.3608 45.92C81.2942 46.2533 81.2008 46.4667 81.0808 46.56C80.9742 46.6667 80.8542 46.72 80.7208 46.72ZM87.4782 45.78C87.0915 45.78 86.7448 45.56 86.4382 45.12C86.1315 44.68 85.9782 44.1133 85.9782 43.42C85.9782 42.66 86.0782 41.8467 86.2782 40.98C86.4915 40.1133 86.7515 39.2333 87.0582 38.34C87.3648 37.4333 87.6648 36.56 87.9582 35.72C88.0248 35.5467 88.1182 35.42 88.2382 35.34C88.3715 35.2467 88.5715 35.2 88.8382 35.2C89.3182 35.2 89.5582 35.4333 89.5582 35.9C89.5582 36.0067 89.5048 36.2467 89.3982 36.62C89.2915 36.9933 89.1515 37.4533 88.9782 38C88.8182 38.5467 88.6515 39.14 88.4782 39.78C88.3048 40.4067 88.1515 41.04 88.0182 41.68C87.8848 42.32 87.7915 42.9133 87.7382 43.46C87.9515 43.2333 88.1915 42.8867 88.4582 42.42C88.7382 41.9533 89.0382 41.4267 89.3582 40.84C89.6782 40.24 90.0115 39.64 90.3582 39.04C90.7048 38.4267 91.0515 37.8667 91.3982 37.36C91.7582 36.84 92.1048 36.4267 92.4382 36.12C92.7848 35.8 93.1048 35.64 93.3982 35.64C93.8248 35.64 94.1848 35.7733 94.4782 36.04C94.7848 36.2933 95.0182 36.7467 95.1782 37.4C95.3515 38.04 95.4382 38.9467 95.4382 40.12C95.4382 40.7467 95.4982 41.3333 95.6182 41.88C95.7515 42.4267 95.9582 42.8667 96.2382 43.2C96.5315 43.52 96.9048 43.68 97.3582 43.68C98.0382 43.68 98.6448 43.56 99.1782 43.32C99.7115 43.0667 100.172 42.7867 100.558 42.48C100.958 42.16 101.292 41.88 101.558 41.64C101.825 41.3867 102.032 41.26 102.178 41.26C102.485 41.26 102.638 41.42 102.638 41.74C102.638 41.8733 102.538 42.0867 102.338 42.38C102.152 42.66 101.885 42.98 101.538 43.34C101.205 43.6867 100.818 44.0267 100.378 44.36C99.9515 44.68 99.4915 44.9467 98.9982 45.16C98.5182 45.3733 98.0315 45.48 97.5382 45.48C96.6182 45.48 95.8648 45.3 95.2782 44.94C94.7048 44.58 94.2782 43.9867 93.9982 43.16C93.7315 42.3333 93.5982 41.2267 93.5982 39.84C93.5982 39.08 93.5515 38.5267 93.4582 38.18C93.3782 37.82 93.2248 37.58 92.9982 37.46C92.8382 37.74 92.6315 38.14 92.3782 38.66C92.1248 39.1667 91.8315 39.7333 91.4982 40.36C91.1782 40.9867 90.8382 41.62 90.4782 42.26C90.1315 42.8867 89.7782 43.4667 89.4182 44C89.0582 44.5333 88.7115 44.9667 88.3782 45.3C88.0448 45.62 87.7448 45.78 87.4782 45.78ZM104.935 46.52C104.282 46.52 103.715 46.3733 103.235 46.08C102.769 45.7733 102.409 45.38 102.155 44.9C101.902 44.42 101.775 43.9267 101.775 43.42C101.775 42.3533 101.962 41.38 102.335 40.5C102.709 39.6067 103.175 38.82 103.735 38.14C104.309 37.4467 104.895 36.86 105.495 36.38C106.109 35.9 106.662 35.54 107.155 35.3C107.662 35.0467 108.022 34.92 108.235 34.92C108.662 34.92 108.875 35.1333 108.875 35.56C108.875 35.76 108.742 35.9933 108.475 36.26C108.209 36.5133 107.869 36.8133 107.455 37.16C107.042 37.5067 106.602 37.9 106.135 38.34C105.669 38.7667 105.229 39.2533 104.815 39.8C104.402 40.3333 104.062 40.9333 103.795 41.6C103.529 42.2533 103.395 42.9733 103.395 43.76C103.395 44.56 103.722 44.96 104.375 44.96C104.975 44.96 105.589 44.8467 106.215 44.62C106.855 44.3933 107.482 44.1 108.095 43.74C108.722 43.3667 109.322 42.98 109.895 42.58C110.469 42.18 110.989 41.8 111.455 41.44C111.922 41.0667 112.315 40.7667 112.635 40.54C112.955 40.3133 113.182 40.2 113.315 40.2C113.582 40.2 113.715 40.3467 113.715 40.64C113.715 40.8667 113.562 41.1667 113.255 41.54C112.949 41.9133 112.535 42.32 112.015 42.76C111.495 43.2 110.915 43.6467 110.275 44.1C109.635 44.54 108.989 44.9467 108.335 45.32C107.682 45.68 107.055 45.9733 106.455 46.2C105.869 46.4133 105.362 46.52 104.935 46.52ZM113.588 46.34C113.334 46.34 113.108 46.2467 112.908 46.06C112.708 45.86 112.608 45.5533 112.608 45.14C112.608 44.8467 112.648 44.44 112.728 43.92C112.808 43.3867 112.914 42.8067 113.048 42.18C113.181 41.5533 113.321 40.9333 113.468 40.32C113.628 39.6933 113.788 39.1333 113.948 38.64C114.108 38.1467 114.248 37.78 114.368 37.54C114.474 37.3533 114.574 37.2333 114.668 37.18C114.774 37.1267 114.874 37.1 114.968 37.1C115.154 37.1 115.314 37.16 115.448 37.28C115.594 37.4 115.668 37.6333 115.668 37.98C115.668 38.18 115.628 38.5133 115.548 38.98C115.481 39.4333 115.388 39.9667 115.268 40.58C115.161 41.18 115.041 41.8 114.908 42.44C114.788 43.0667 114.668 43.6667 114.548 44.24C114.428 44.8133 114.334 45.2933 114.268 45.68C114.214 45.8933 114.121 46.06 113.988 46.18C113.868 46.2867 113.734 46.34 113.588 46.34ZM115.548 35.28C115.241 35.28 114.948 35.1867 114.668 35C114.401 34.8133 114.268 34.5133 114.268 34.1C114.268 33.7533 114.348 33.4733 114.508 33.26C114.681 33.0467 114.881 32.8933 115.108 32.8C115.348 32.6933 115.554 32.64 115.728 32.64C115.901 32.64 116.094 32.68 116.308 32.76C116.534 32.8267 116.728 32.96 116.888 33.16C117.048 33.3467 117.128 33.6267 117.128 34C117.128 34.2533 117.041 34.48 116.868 34.68C116.694 34.8667 116.481 35.0133 116.228 35.12C115.988 35.2267 115.761 35.28 115.548 35.28ZM119.368 46.76C118.862 46.76 118.442 46.5267 118.108 46.06C117.788 45.58 117.628 44.96 117.628 44.2C117.628 43.4933 117.802 42.7933 118.148 42.1C118.508 41.4067 118.982 40.74 119.568 40.1C120.155 39.46 120.795 38.8733 121.488 38.34C122.182 37.7933 122.875 37.32 123.568 36.92C124.275 36.52 124.922 36.2067 125.508 35.98C126.095 35.7533 126.562 35.64 126.908 35.64C127.095 35.64 127.248 35.68 127.368 35.76C127.488 35.8267 127.548 35.9533 127.548 36.14C127.548 36.26 127.502 36.3733 127.408 36.48C127.422 36.48 127.435 36.48 127.448 36.48C127.742 36.48 127.888 36.6533 127.888 37C127.888 37.12 127.842 37.3667 127.748 37.74C127.655 38.1 127.548 38.5533 127.428 39.1C127.308 39.6467 127.202 40.2533 127.108 40.92C127.015 41.5733 126.968 42.24 126.968 42.92C126.968 43.4933 127.188 43.78 127.628 43.78C128.122 43.78 128.622 43.6667 129.128 43.44C129.635 43.2133 130.128 42.94 130.608 42.62C131.088 42.2867 131.528 41.96 131.928 41.64C132.328 41.3067 132.668 41.0267 132.948 40.8C133.228 40.5733 133.428 40.46 133.548 40.46C133.655 40.46 133.748 40.4933 133.828 40.56C133.908 40.6267 133.948 40.7333 133.948 40.88C133.948 41.0133 133.815 41.2533 133.548 41.6C133.282 41.9467 132.928 42.34 132.488 42.78C132.048 43.22 131.555 43.6467 131.008 44.06C130.462 44.4733 129.902 44.8133 129.328 45.08C128.755 45.3467 128.208 45.48 127.688 45.48C127.288 45.48 126.922 45.36 126.588 45.12C126.268 44.8667 126.008 44.44 125.808 43.84C125.622 43.24 125.528 42.4133 125.528 41.36V40.86C124.875 41.94 124.188 42.9267 123.468 43.82C122.762 44.7133 122.055 45.4267 121.348 45.96C120.655 46.4933 119.995 46.76 119.368 46.76ZM126.528 37.08C126.462 37.1067 126.368 37.1467 126.248 37.2C125.635 37.48 124.995 37.8267 124.328 38.24C123.675 38.6533 123.035 39.1133 122.408 39.62C121.795 40.1267 121.242 40.6533 120.748 41.2C120.255 41.7467 119.862 42.3 119.568 42.86C119.275 43.42 119.128 43.9667 119.128 44.5C119.128 44.6733 119.162 44.8067 119.228 44.9C119.308 44.9933 119.442 45.04 119.628 45.04C119.895 45.04 120.242 44.8733 120.668 44.54C121.095 44.1933 121.562 43.74 122.068 43.18C122.588 42.62 123.108 42 123.628 41.32C124.148 40.64 124.642 39.9533 125.108 39.26C125.588 38.5667 126.002 37.9267 126.348 37.34C126.402 37.2467 126.462 37.16 126.528 37.08ZM133.537 46.62C133.324 46.62 133.144 46.5333 132.997 46.36C132.85 46.1867 132.777 45.9467 132.777 45.64C132.777 45.4133 132.824 45.04 132.917 44.52C133.024 43.9867 133.137 43.3667 133.257 42.66C133.39 41.9533 133.504 41.22 133.597 40.46C133.69 39.6867 133.737 38.9467 133.737 38.24C133.737 37.8933 133.824 37.64 133.997 37.48C134.184 37.3067 134.39 37.22 134.617 37.22C134.83 37.22 134.99 37.3533 135.097 37.62C135.204 37.8867 135.224 38.42 135.157 39.22C135.77 37.86 136.444 36.7667 137.177 35.94C137.924 35.1 138.664 34.5 139.397 34.14C140.13 33.7667 140.79 33.58 141.377 33.58C141.764 33.58 142.044 33.66 142.217 33.82C142.404 33.9667 142.497 34.1333 142.497 34.32C142.497 34.5733 142.39 34.7733 142.177 34.92C141.977 35.0533 141.624 35.2133 141.117 35.4C140.53 35.6267 139.99 35.8933 139.497 36.2C139.017 36.4933 138.557 36.88 138.117 37.36C137.69 37.84 137.27 38.4533 136.857 39.2C136.444 39.9333 136.03 40.84 135.617 41.92C135.204 43 134.764 44.3 134.297 45.82C134.217 46.1133 134.11 46.32 133.977 46.44C133.857 46.56 133.71 46.62 133.537 46.62ZM149.536 37.62C149.536 38.0467 149.402 38.4667 149.136 38.88C148.869 39.28 148.516 39.6667 148.076 40.04C147.636 40.4 147.149 40.74 146.616 41.06C146.082 41.38 145.549 41.66 145.016 41.9C144.482 42.14 143.996 42.3333 143.556 42.48C143.449 43 143.396 43.46 143.396 43.86C143.396 44.1133 143.456 44.2933 143.576 44.4C143.696 44.5067 143.882 44.56 144.136 44.56C144.696 44.56 145.289 44.46 145.916 44.26C146.542 44.06 147.182 43.8 147.836 43.48C148.489 43.16 149.116 42.82 149.716 42.46C150.316 42.1 150.862 41.76 151.356 41.44C151.862 41.12 152.282 40.86 152.616 40.66C152.949 40.46 153.169 40.36 153.276 40.36C153.436 40.36 153.556 40.4133 153.636 40.52C153.729 40.6133 153.776 40.7267 153.776 40.86C153.776 40.9667 153.609 41.1733 153.276 41.48C152.956 41.7867 152.522 42.1467 151.976 42.56C151.429 42.96 150.816 43.3733 150.136 43.8C149.456 44.2267 148.749 44.6267 148.016 45C147.296 45.3733 146.596 45.6733 145.916 45.9C145.249 46.1267 144.649 46.24 144.116 46.24C143.422 46.24 142.882 45.98 142.496 45.46C142.109 44.94 141.916 44.1333 141.916 43.04C141.916 42.3067 142.009 41.5667 142.196 40.82C142.396 40.0733 142.662 39.36 142.996 38.68C143.342 37.9867 143.722 37.3733 144.136 36.84C144.562 36.2933 145.009 35.8667 145.476 35.56C145.942 35.24 146.396 35.08 146.836 35.08C147.676 35.08 148.336 35.3133 148.816 35.78C149.296 36.2467 149.536 36.86 149.536 37.62ZM143.976 40.94C144.389 40.6867 144.816 40.42 145.256 40.14C145.696 39.86 146.102 39.5733 146.476 39.28C146.849 38.9867 147.149 38.68 147.376 38.36C147.616 38.0267 147.736 37.6867 147.736 37.34C147.736 36.8467 147.469 36.6 146.936 36.6C146.602 36.6 146.249 36.8133 145.876 37.24C145.516 37.6533 145.169 38.1933 144.836 38.86C144.502 39.5267 144.216 40.22 143.976 40.94ZM161.966 46.34C161.713 46.34 161.486 46.2467 161.286 46.06C161.086 45.86 160.986 45.5533 160.986 45.14C160.986 44.8467 161.026 44.44 161.106 43.92C161.186 43.3867 161.293 42.8067 161.426 42.18C161.56 41.5533 161.7 40.9333 161.846 40.32C162.006 39.6933 162.166 39.1333 162.326 38.64C162.486 38.1467 162.626 37.78 162.746 37.54C162.853 37.3533 162.953 37.2333 163.046 37.18C163.153 37.1267 163.253 37.1 163.346 37.1C163.533 37.1 163.693 37.16 163.826 37.28C163.973 37.4 164.046 37.6333 164.046 37.98C164.046 38.18 164.006 38.5133 163.926 38.98C163.86 39.4333 163.766 39.9667 163.646 40.58C163.54 41.18 163.42 41.8 163.286 42.44C163.166 43.0667 163.046 43.6667 162.926 44.24C162.806 44.8133 162.713 45.2933 162.646 45.68C162.593 45.8933 162.5 46.06 162.366 46.18C162.246 46.2867 162.113 46.34 161.966 46.34ZM163.926 35.28C163.62 35.28 163.326 35.1867 163.046 35C162.78 34.8133 162.646 34.5133 162.646 34.1C162.646 33.7533 162.726 33.4733 162.886 33.26C163.06 33.0467 163.26 32.8933 163.486 32.8C163.726 32.6933 163.933 32.64 164.106 32.64C164.28 32.64 164.473 32.68 164.686 32.76C164.913 32.8267 165.106 32.96 165.266 33.16C165.426 33.3467 165.506 33.6267 165.506 34C165.506 34.2533 165.42 34.48 165.246 34.68C165.073 34.8667 164.86 35.0133 164.606 35.12C164.366 35.2267 164.14 35.28 163.926 35.28ZM170.595 47.04C169.569 47.04 168.762 46.7067 168.175 46.04C167.602 45.36 167.315 44.4133 167.315 43.2C167.315 42.4533 167.415 41.58 167.615 40.58C167.829 39.5667 168.095 38.5 168.415 37.38C168.749 36.2467 169.109 35.1267 169.495 34.02C169.882 32.9133 170.255 31.8867 170.615 30.94C170.989 29.98 171.315 29.18 171.595 28.54C171.755 28.18 171.982 28 172.275 28C172.675 28 172.875 28.2467 172.875 28.74C172.875 28.9 172.802 29.2267 172.655 29.72C172.509 30.2133 172.315 30.8267 172.075 31.56C171.835 32.28 171.575 33.08 171.295 33.96C171.015 34.84 170.729 35.7467 170.435 36.68C170.155 37.6 169.895 38.5133 169.655 39.42C169.415 40.3133 169.222 41.1533 169.075 41.94C168.929 42.7267 168.855 43.4 168.855 43.96C168.855 44.32 168.949 44.6067 169.135 44.82C169.335 45.02 169.602 45.12 169.935 45.12C170.549 45.12 171.162 45 171.775 44.76C172.402 44.5067 173.002 44.2 173.575 43.84C174.149 43.4667 174.669 43.1 175.135 42.74C175.615 42.3667 176.022 42.06 176.355 41.82C176.689 41.5667 176.922 41.44 177.055 41.44C177.349 41.44 177.495 41.6 177.495 41.92C177.495 42.0267 177.389 42.2267 177.175 42.52C176.962 42.8 176.675 43.1333 176.315 43.52C175.955 43.9067 175.535 44.3067 175.055 44.72C174.589 45.12 174.095 45.5 173.575 45.86C173.069 46.2067 172.555 46.4867 172.035 46.7C171.529 46.9267 171.049 47.04 170.595 47.04ZM181.578 38.46C181.004 38.46 180.598 38.3533 180.358 38.14C180.118 37.9267 179.998 37.6333 179.998 37.26C179.998 36.8333 180.091 36.4933 180.278 36.24C180.464 35.9867 180.691 35.8 180.958 35.68C181.224 35.56 181.484 35.5 181.738 35.5C182.084 35.5 182.404 35.6067 182.698 35.82C182.991 36.02 183.138 36.42 183.138 37.02C183.138 37.4467 183.004 37.7933 182.738 38.06C182.471 38.3267 182.084 38.46 181.578 38.46ZM179.698 46.86C179.364 46.86 179.064 46.7133 178.798 46.42C178.544 46.14 178.418 45.8 178.418 45.4C178.418 45.08 178.511 44.82 178.698 44.62C178.884 44.42 179.111 44.2733 179.378 44.18C179.644 44.0733 179.898 44.02 180.138 44.02C180.444 44.02 180.731 44.1067 180.998 44.28C181.264 44.4533 181.398 44.7667 181.398 45.22C181.398 45.4867 181.318 45.7467 181.158 46C181.011 46.2533 180.804 46.46 180.538 46.62C180.284 46.78 180.004 46.86 179.698 46.86Z" fill="#7676B7"/>
</svg>
